<?xml version="1.0" encoding="utf-8"?>
<!-- Generator: Adobe Illustrator 22.0.1, SVG Export Plug-In . SVG Version: 6.00 Build 0)  -->
<svg version="1.1" id="Layer_1" xmlns="http://www.w3.org/2000/svg" xmlns:xlink="http://www.w3.org/1999/xlink" x="0px" y="0px"
	 viewBox="0 0 150 76" style="enable-background:new 0 0 150 76;" xml:space="preserve">
<style type="text/css">
	.st0{fill:#FFFFFF;}
</style>
<g>
	<path class="st0" d="M108.4,30.5c-2.3,3.4-4.6,6.8-6.6,10.4c-2.3,4-5.7,5.9-10.2,5.3c-4.2-0.5-6.9-3.2-7.9-7.3
		c-1.1-4.3,0.6-7.8,4.1-10.4c6.4-4.7,11.3-10.6,14.7-17.8c1.8-3.8,5.1-5.8,9.3-5.5c3.9,0.3,7.1,2.4,8.4,6.2c1.4,4.2,0.6,8.1-3,11.1
		c-1.3,1-1.7,1.2-3.7,3C111.9,26.6,110.5,27.5,108.4,30.5z M93.1,41.2c2.8-0.2,4.5-1.8,4.5-4.6c0-2.8-1.9-4.5-4.6-4.4
		c-2.8,0-4.5,1.8-4.5,4.6C88.5,39.5,90.3,41,93.1,41.2z M106.6,15.5c0.5,2.7,2.3,4.3,5,4c2.7-0.3,4.3-2.2,3.9-5.1
		c-0.4-2.7-2.1-4.3-5-4C107.6,10.7,106.5,12.6,106.6,15.5z"/>
	<path class="st0" d="M55.6,30.5c-2.3,3.4-4.6,6.8-6.6,10.4c-2.3,4-5.7,5.9-10.2,5.3c-4.2-0.5-6.9-3.2-7.9-7.3
		c-1.1-4.3,0.6-7.8,4.1-10.4c6.4-4.7,11.3-10.6,14.7-17.8c1.8-3.8,5.1-5.8,9.3-5.5c3.9,0.3,7.1,2.4,8.4,6.2c1.4,4.2,0.6,8.1-3,11.1
		c-1.3,1.1-1.7,1.2-3.7,3C59.1,26.7,57.6,27.5,55.6,30.5z M40.3,41.2c2.8-0.2,4.5-1.8,4.5-4.6c0-2.8-1.9-4.5-4.6-4.4
		c-2.8,0-4.5,1.8-4.5,4.6C35.6,39.6,37.4,41,40.3,41.2z M53.7,15.5c0.5,2.7,2.3,4.3,5,4c2.7-0.3,4.3-2.2,3.9-5.1
		c-0.4-2.7-2.1-4.3-5-4C54.8,10.7,53.7,12.7,53.7,15.5z"/>
	<path class="st0" d="M84,27.5c1.2-0.9,2.4-1.8,3.5-2.8l-18-12.4c0.1,0.3,0.3,0.6,0.4,0.9c1.4,4.2,0.6,8.1-3,11.1
		c-1.3,1.1-1.7,1.2-3.7,3c-0.4,0.3-0.8,0.6-1.2,0.9l19,12.4c-0.5-0.8-0.8-1.8-1.1-2.8C78.8,33.6,80.5,30.1,84,27.5z"/>
</g>
<g>
	<path class="st0" d="M17.6,59.8c0,1.2-0.6,2.3-2,3c1.8,0.5,2.4,2.5,2.4,3.4c0,3.4-2.6,4.5-5.7,4.5c-2.4,0-4.8,0-7.3,0V55.3
		c2.4,0,4.8,0,7.3,0C15.4,55.3,17.6,56.7,17.6,59.8z M8,61.5h4.4c1.8,0,2.4-0.8,2.4-1.6c0-0.7-0.6-1.9-2.4-1.9H8V61.5z M8,68h4.4
		c1.2,0,2.9-0.4,2.9-1.8c0-1.4-1.7-2.1-2.9-2.1H8V68z"/>
	<path class="st0" d="M23,55.3V68h7.9v2.7H20.1V55.3H23z"/>
	<path class="st0" d="M47.5,63.1c0,4-2.5,7.9-7.8,7.9c-5.4,0-7.9-3.9-7.9-7.9c0-4,2.6-8.1,7.9-8.1C44.9,55,47.5,59.1,47.5,63.1z
		 M34.6,63.1c0.1,2.5,1.4,5.2,5,5.2c3.6,0,5-2.7,5-5.2c0-2.6-1.4-5.5-5-5.5C36,57.7,34.6,60.6,34.6,63.1z"/>
	<path class="st0" d="M63.1,68.7c-1.6,1.6-3.6,2.3-5.8,2.3c-5.7,0-8.1-3.9-8.1-7.9c0-4,2.6-8.1,8.1-8.1c2.1,0,4,0.8,5.6,2.3L61,59.2
		c-1-1-2.4-1.4-3.7-1.4c-3.7,0-5.3,2.8-5.3,5.3c0,2.5,1.5,5.2,5.3,5.2c1.3,0,2.8-0.5,3.8-1.6L63.1,68.7z"/>
	<path class="st0" d="M77,55.4l-6.8,7.3l7.4,7.7v0.2H74l-6.4-6.8v6.8h-2.9V55.3h2.9v6.5l5.8-6.5L77,55.4L77,55.4L77,55.4z"/>
	<path class="st0" d="M92,68.5c-1.5,1.5-3.6,2.3-5.6,2.3c-5.2,0-7.8-3.6-7.9-7.7c0-4.1,2.6-7.9,7.9-7.9c2,0,4,0.8,5.6,2.3l-0.8,0.7
		c-1.3-1.3-3-1.9-4.8-1.9c-4.5,0-6.7,3.2-6.7,6.8c0,3.6,2.3,6.7,6.7,6.7c1.7,0,3.5-0.7,4.8-1.9L92,68.5z"/>
	<path class="st0" d="M98.7,64.5l-6-9.2v0h1.4l5.2,8.1l5.2-8.1h1.4v0l-6,9.2v6.1h-1.2L98.7,64.5L98.7,64.5z"/>
	<path class="st0" d="M120.6,68.5c-1.5,1.5-3.6,2.3-5.6,2.3c-5.2,0-7.8-3.6-7.9-7.7c0-4.1,2.6-7.9,7.9-7.9c2,0,4,0.8,5.6,2.3
		l-0.8,0.7c-1.3-1.3-3-1.9-4.8-1.9c-4.5,0-6.7,3.2-6.7,6.8c0,3.6,2.3,6.7,6.7,6.7c1.7,0,3.5-0.7,4.8-1.9L120.6,68.5z"/>
	<path class="st0" d="M124.4,55.3v14.2h8.6v1.1h-9.8V55.3H124.4z"/>
	<path class="st0" d="M136.3,62.4h9v1.1h-9v6h9.7v1.1h-10.8V55.3h10.6v1.1h-9.4V62.4z"/>
</g>
</svg>
