<?xml version="1.0" encoding="utf-8"?>
<!-- Generator: Adobe Illustrator 16.0.0, SVG Export Plug-In . SVG Version: 6.00 Build 0)  -->
<!DOCTYPE svg PUBLIC "-//W3C//DTD SVG 1.1//EN" "http://www.w3.org/Graphics/SVG/1.1/DTD/svg11.dtd">
<svg version="1.1" id="Calque_1" xmlns="http://www.w3.org/2000/svg" xmlns:xlink="http://www.w3.org/1999/xlink" x="0px" y="0px"
	 width="271.667px" height="61px" viewBox="0 0 271.667 61" enable-background="new 0 0 271.667 61" xml:space="preserve">
<g>
	<linearGradient id="SVGID_1_" gradientUnits="userSpaceOnUse" x1="10.7598" y1="6.2744" x2="58.7374" y2="54.252">
		<stop  offset="0.074" style="stop-color:#F15A29"/>
		<stop  offset="0.58" style="stop-color:#F7941E"/>
		<stop  offset="0.9666" style="stop-color:#FBB040"/>
	</linearGradient>
	<path fill-rule="evenodd" clip-rule="evenodd" fill="url(#SVGID_1_)" d="M60.807,49.256c0,3.902-3.163,7.065-7.065,7.065H15.755
		c-3.902,0-7.065-3.163-7.065-7.065V11.27c0-3.902,3.163-7.065,7.065-7.065h37.986c3.902,0,7.065,3.163,7.065,7.065V49.256z"/>
	<path fill-rule="evenodd" clip-rule="evenodd" fill="#FFFFFF" d="M54.157,24.233c-0.347,2.423-0.683,4.853-0.881,7.292
		c-0.226,2.747-1.563,4.652-4.119,5.524c-2.401,0.819-4.563,0.073-6.16-1.834c-1.696-2.025-1.72-4.329-0.51-6.628
		c2.208-4.198,3.302-8.64,3.257-13.397c-0.022-2.505,1.22-4.427,3.565-5.353c2.201-0.871,4.413-0.566,6.109,1.158
		c1.87,1.9,2.448,4.189,1.265,6.749c-0.417,0.898-0.614,1.1-1.211,2.558C55.037,21.253,54.467,22.076,54.157,24.233z M48.67,33.958
		c1.461-0.848,1.928-2.157,1.205-3.621c-0.738-1.49-2.161-1.911-3.643-1.164c-1.478,0.745-1.967,2.125-1.23,3.613
		C45.751,34.298,47.104,34.583,48.67,33.958z M49.248,16.634c0.992,1.319,2.345,1.725,3.712,0.835
		c1.343-0.874,1.714-2.31,0.774-3.729c-0.909-1.372-2.246-1.772-3.7-0.85C48.572,13.818,48.476,15.147,49.248,16.634z"/>
	<path fill-rule="evenodd" clip-rule="evenodd" fill="#FFFFFF" d="M25.711,38.015c-0.349,2.423-0.682,4.854-0.881,7.292
		c-0.226,2.747-1.563,4.653-4.119,5.524c-2.401,0.818-4.563,0.074-6.161-1.834c-1.693-2.024-1.718-4.33-0.508-6.628
		c2.208-4.198,3.3-8.64,3.256-13.398c-0.022-2.505,1.221-4.427,3.564-5.353c2.202-0.871,4.413-0.567,6.11,1.158
		c1.87,1.9,2.448,4.189,1.263,6.748c-0.415,0.899-0.614,1.101-1.211,2.558C26.589,35.036,26.021,35.857,25.711,38.015z
		 M20.224,47.74c1.461-0.847,1.928-2.156,1.205-3.621c-0.738-1.491-2.161-1.91-3.643-1.164c-1.478,0.745-1.967,2.125-1.229,3.613
		C17.306,48.08,18.657,48.366,20.224,47.74z M20.801,30.416c0.992,1.319,2.345,1.726,3.712,0.836c1.343-0.875,1.716-2.31,0.774-3.73
		c-0.909-1.371-2.246-1.772-3.7-0.849C20.125,27.601,20.029,28.93,20.801,30.416z"/>
	<path fill="#FFFFFF" d="M40.212,29.023c0.419-0.796,0.785-1.605,1.124-2.421l-12.9-1.96c0.155,0.128,0.313,0.254,0.459,0.405
		c1.869,1.9,2.449,4.19,1.265,6.748c-0.417,0.899-0.614,1.102-1.211,2.558c-0.122,0.267-0.255,0.526-0.388,0.805l13.48,1.713
		c-0.471-0.328-0.915-0.735-1.319-1.22C39.026,33.627,39.002,31.322,40.212,29.023z"/>
</g>
<g>
	<path fill="#FFFFFF" d="M88.03,25.837c0,1.614-0.777,3.17-2.721,4.037c2.453,0.748,3.35,3.35,3.35,4.665
		c0,4.665-3.5,6.161-7.835,6.161c-3.319,0-6.609,0-9.929,0V19.766c3.289,0,6.609,0,9.929,0C84.95,19.766,88.03,21.62,88.03,25.837z
		 M74.782,28.17h6.042c2.482,0,3.289-1.048,3.289-2.244c0-0.957-0.777-2.571-3.289-2.571h-6.042V28.17z M74.782,37.021h6.042
		c1.615,0,3.918-0.538,3.918-2.512c0-1.884-2.303-2.871-3.918-2.871h-6.042V37.021z"/>
	<path fill="#FFFFFF" d="M95.388,19.766v17.285h10.766V40.7H91.44V19.766H95.388z"/>
	<path fill="#FFFFFF" d="M128.882,30.353c-0.06,5.412-3.379,10.825-10.735,10.825c-7.357,0-10.766-5.293-10.766-10.795
		c0-5.503,3.529-11.035,10.766-11.035C125.353,19.348,128.942,24.879,128.882,30.353z M111.269,30.442
		c0.089,3.439,1.943,7.117,6.878,7.117c4.934,0,6.788-3.708,6.849-7.147c0.06-3.529-1.915-7.476-6.849-7.476
		C113.212,22.936,111.178,26.913,111.269,30.442z"/>
	<path fill="#FFFFFF" d="M150.236,38.068c-2.154,2.123-4.934,3.11-7.954,3.11c-7.777,0-11.065-5.353-11.096-10.795
		c-0.029-5.473,3.529-11.035,11.096-11.035c2.84,0,5.532,1.076,7.686,3.199l-2.632,2.542c-1.376-1.346-3.23-1.974-5.054-1.974
		c-5.056,0-7.237,3.768-7.208,7.267c0.029,3.469,2.034,7.087,7.208,7.087c1.824,0,3.887-0.748,5.262-2.123L150.236,38.068z"/>
	<path fill="#FFFFFF" d="M169.286,19.886l-9.3,10.018l10.077,10.557V40.7h-4.874l-8.762-9.271V40.7h-3.948V19.766h3.948v8.852
		l7.954-8.852h4.904V19.886z"/>
	<path fill="#FFFFFF" d="M189.802,37.799c-2.094,2.093-4.875,3.14-7.625,3.14c-7.058,0-10.737-4.934-10.766-10.585
		c-0.06-5.593,3.588-10.827,10.766-10.827c2.75,0,5.532,1.047,7.625,3.14l-1.107,0.958c-1.793-1.795-4.157-2.662-6.519-2.662
		c-6.101,0-9.241,4.306-9.21,9.331c0.059,4.904,3.17,9.151,9.21,9.151c2.362,0,4.755-0.897,6.548-2.662L189.802,37.799z"/>
	<path fill="#FFFFFF" d="M199.014,32.326l-8.165-12.53v-0.03h1.884l7.087,11.005l7.118-11.005h1.884v0.03l-8.194,12.53V40.7h-1.614
		V32.326z"/>
	<path fill="#FFFFFF" d="M229.038,37.799c-2.092,2.093-4.874,3.14-7.625,3.14c-7.058,0-10.735-4.934-10.766-10.585
		c-0.059-5.593,3.589-10.827,10.766-10.827c2.752,0,5.533,1.047,7.625,3.14l-1.105,0.958c-1.794-1.795-4.158-2.662-6.52-2.662
		c-6.101,0-9.24,4.306-9.21,9.331c0.06,4.904,3.17,9.151,9.21,9.151c2.362,0,4.755-0.897,6.549-2.662L229.038,37.799z"/>
	<path fill="#FFFFFF" d="M234.123,19.766v19.408h11.782V40.7h-13.397V19.766H234.123z"/>
	<path fill="#FFFFFF" d="M250.541,29.425h12.262v1.466h-12.262v8.253h13.219V40.7h-14.804V19.766h14.445v1.525h-12.86V29.425z"/>
</g>
</svg>
